<svg width="128" height="128" viewBox="0 0 128 128" xmlns="http://www.w3.org/2000/svg">
  <defs>
    <radialGradient id="head" cx="32%" cy="23%" r="76%">
      <stop offset="0%" stop-color="#FFB2A3"/>
      <stop offset="18%" stop-color="#FF755E"/>
      <stop offset="48%" stop-color="#F44332"/>
      <stop offset="78%" stop-color="#D82116"/>
      <stop offset="100%" stop-color="#8D0A05"/>
    </radialGradient>
    <linearGradient id="body" x1="0" y1="0" x2="1" y2="1">
      <stop offset="0%" stop-color="#FF7861"/>
      <stop offset="35%" stop-color="#F44332"/>
      <stop offset="68%" stop-color="#D92418"/>
      <stop offset="100%" stop-color="#910D07"/>
    </linearGradient>
    <linearGradient id="base" x1="0" y1="0" x2="0" y2="1">
      <stop offset="0%" stop-color="#FF624C"/>
      <stop offset="45%" stop-color="#E62D20"/>
      <stop offset="100%" stop-color="#8B0B05"/>
    </linearGradient>
  </defs>
  <ellipse cx="64" cy="99" rx="35" ry="15" fill="url(#base)" stroke="#7A0804" stroke-width="2"/>
  <ellipse cx="64" cy="94" rx="29" ry="10" fill="#FF5945" opacity="0.58"/>
  <path d="M48 52 C48 63 43 70 36 80 C31 87 29 92 31 96 C34 103 46 107 64 107 C82 107 94 103 97 96 C99 92 97 87 92 80 C85 70 80 63 80 52 Z" fill="url(#body)" stroke="#A9140B" stroke-width="2"/>
  <path d="M48 60 C46 72 39 80 37 88 C36 92 38 95 41 97" fill="none" stroke="#FF9B89" stroke-width="4" stroke-linecap="round" opacity="0.46"/>
  <ellipse cx="64" cy="55" rx="17" ry="9" fill="#E93224"/>
  <circle cx="64" cy="37" r="20" fill="url(#head)" stroke="#A8150C" stroke-width="2"/>
  <ellipse cx="56" cy="29" rx="7" ry="5" fill="#FFFFFF" opacity="0.55"/>
  <ellipse cx="52" cy="36" rx="3" ry="7" fill="#FFFFFF" opacity="0.18"/>
</svg>
